<?xml version="1.0" standalone="no"?>
<!DOCTYPE svg PUBLIC "-//W3C//DTD SVG 20010904//EN"
 "http://www.w3.org/TR/2001/REC-SVG-20010904/DTD/svg10.dtd">
<svg version="1.0" xmlns="http://www.w3.org/2000/svg"
 width="650.000000pt" height="650.000000pt" viewBox="0 0 650.000000 650.000000"
 preserveAspectRatio="xMidYMid meet">
<metadata>
Created by potrace 1.11, written by Peter Selinger 2001-2013
</metadata>
<g transform="translate(0.000000,650.000000) scale(0.100000,-0.100000)"
fill="#000000" stroke="none">
<path d="M3161 6473 c-42 -21 -95 -72 -118 -116 -13 -23 -18 -55 -18 -118 0
-78 3 -90 30 -135 19 -30 51 -62 83 -84 l52 -34 0 -252 c0 -235 1 -253 20
-276 11 -14 32 -28 47 -31 35 -7 88 15 102 41 7 13 11 111 11 270 l0 250 45
26 c173 102 163 365 -17 457 -50 25 -187 26 -237 2z"/>
<path d="M2944 5029 c-298 -16 -680 -71 -757 -108 -97 -47 -177 -141 -218
-257 -29 -81 -29 -224 -2 -310 41 -126 137 -231 247 -273 64 -24 339 -64 586
-86 202 -17 643 -20 836 -5 319 25 605 70 675 106 271 137 318 545 88 759 -72
66 -125 87 -294 114 -391 62 -771 82 -1161 60z m-140 -250 c59 -27 123 -92
150 -149 32 -69 29 -189 -6 -255 -99 -187 -328 -226 -476 -82 -61 59 -84 109
-90 193 -5 80 5 120 47 186 78 123 242 170 375 107z m1128 3 c109 -48 170
-139 176 -264 4 -65 0 -85 -21 -131 -107 -234 -428 -242 -544 -13 -85 167 14
378 202 427 46 12 138 3 187 -19z"/>
<path d="M1245 4304 c-179 -27 -355 -146 -433 -291 -73 -138 -66 -20 -72
-1318 l-5 -1170 -137 -3 -138 -3 0 -209 0 -210 660 0 660 0 0 210 0 210 -135
0 -135 0 0 58 c0 31 -3 402 -7 825 -3 422 -4 767 0 767 7 0 425 -543 429 -558
2 -5 -41 -44 -94 -87 -54 -42 -98 -79 -98 -83 0 -13 252 -333 259 -330 17 7
940 723 940 730 1 5 -204 275 -254 336 -1 1 -31 -20 -66 -47 -60 -47 -65 -49
-80 -33 -9 9 -184 235 -389 502 -205 267 -394 508 -422 536 -60 62 -151 118
-234 143 -62 20 -195 33 -249 25z"/>
<path d="M5061 4295 c-92 -17 -199 -69 -268 -130 -29 -25 -222 -267 -434 -543
-210 -273 -391 -507 -402 -519 l-19 -22 -65 49 -65 49 -130 -166 c-124 -160
-128 -167 -111 -184 10 -10 222 -176 472 -369 371 -287 456 -349 467 -338 7 7
66 83 132 167 l120 155 -81 64 c-45 35 -92 71 -105 80 l-22 17 210 275 c116
151 216 277 222 279 8 3 10 -66 5 -260 -4 -145 -7 -515 -7 -821 l0 -558 -135
0 -135 0 0 -210 0 -210 660 0 660 0 0 210 0 210 -135 0 -134 0 -3 1153 c-4
1285 2 1182 -74 1327 -46 88 -102 150 -182 204 -129 86 -292 119 -441 91z"/>
<path d="M2612 2364 l-302 -235 47 -62 c238 -312 292 -373 388 -442 256 -183
603 -211 880 -73 147 74 231 153 415 393 68 88 127 165 132 172 6 8 -79 80
-284 238 -161 125 -298 232 -305 237 -7 6 -40 -29 -106 -114 -107 -140 -119
-151 -170 -173 -93 -39 -150 -10 -264 136 -48 62 -97 123 -108 135 l-20 23
-303 -235z"/>
<path d="M740 445 l0 -425 380 0 380 0 0 425 0 425 -380 0 -380 0 0 -425z"/>
<path d="M4990 445 l0 -425 385 0 385 0 -2 423 -3 422 -382 3 -383 2 0 -425z"/>
</g>
</svg>
