<?xml version="1.0" encoding="UTF-8" standalone="no"?>
<!-- Created with Inkscape (http://www.inkscape.org/) -->

<svg
   xmlns:dc="http://purl.org/dc/elements/1.1/"
   xmlns:cc="http://creativecommons.org/ns#"
   xmlns:rdf="http://www.w3.org/1999/02/22-rdf-syntax-ns#"
   xmlns:svg="http://www.w3.org/2000/svg"
   xmlns="http://www.w3.org/2000/svg"
   xmlns:sodipodi="http://sodipodi.sourceforge.net/DTD/sodipodi-0.dtd"
   xmlns:inkscape="http://www.inkscape.org/namespaces/inkscape"
   width="210mm"
   height="297mm"
   viewBox="0 0 210 297"
   version="1.1"
   id="svg8"
   sodipodi:docname="rib1.svg"
   inkscape:version="0.92.3 (2405546, 2018-03-11)">
  <defs
     id="defs2" />
  <sodipodi:namedview
     id="base"
     pagecolor="#ffffff"
     bordercolor="#666666"
     borderopacity="1.0"
     inkscape:pageopacity="0.0"
     inkscape:pageshadow="2"
     inkscape:zoom="0.7"
     inkscape:cx="232.31771"
     inkscape:cy="635.22577"
     inkscape:document-units="mm"
     inkscape:current-layer="layer1"
     showgrid="false"
     inkscape:window-width="1920"
     inkscape:window-height="1057"
     inkscape:window-x="1912"
     inkscape:window-y="-8"
     inkscape:window-maximized="1" />
  <metadata
     id="metadata5">
    <rdf:RDF>
      <cc:Work
         rdf:about="">
        <dc:format>image/svg+xml</dc:format>
        <dc:type
           rdf:resource="http://purl.org/dc/dcmitype/StillImage" />
        <dc:title></dc:title>
      </cc:Work>
    </rdf:RDF>
  </metadata>
  <g
     inkscape:label="Layer 1"
     inkscape:groupmode="layer"
     id="layer1">
    <path
       style="fill:#000000;stroke-width:0.39093569"
       d="m 30.800587,163.36438 -30.61159738,-0.0913 v -1.53551 -1.53552 L 4.8075806,158.5295 c 4.338181,-1.57102 4.62135,-1.73651 4.664032,-2.72574 0.02499,-0.57926 0.6321054,-2.05592 1.3491384,-3.28148 1.615444,-2.76111 3.780991,-8.00943 6.276782,-15.2121 1.050794,-3.03252 3.309394,-8.55508 5.019114,-12.27237 1.70972,-3.71728 4.65543,-10.12026 6.54603,-14.22884 6.61412,-14.373531 8.45232,-20.638421 9.55017,-32.548486 0.13527,-1.467349 0.42445,-4.028541 0.64265,-5.691537 0.6126,-4.669117 0.85872,-12.728295 0.80127,-26.238705 -0.0778,-18.282264 -0.12861,-20.714491 -0.43304,-20.715531 -0.15231,-5.2e-4 -0.40635,-2.52212 -0.56444,-5.603554 -0.26915,-5.245858 -1.18784,-10.844426 -2.62415,-15.991624 -0.33877,-1.214089 -0.61596,-2.694777 -0.61596,-3.29041996 0,-1.023352 0.093,-1.082988 1.69058,-1.082988 0.92981,0 2.13816,0.14164 2.68521,0.314755 1.21287,0.383808 3.67577,3.76068496 8.99028,12.32661096 2.18039,3.514343 4.41508,6.986811 4.96596,7.716598 0.55088,0.729787 1.0016,1.62684 1.0016,1.993452 0,0.366613 0.43759,1.057502 0.97243,1.535311 0.53482,0.477808 1.4922,1.901835 2.12747,3.164503 2.20335,4.379275 4.20391,8.77767 4.20391,9.242587 0,0.257011 0.27022,0.720012 0.60047,1.028887 0.6869,0.642408 2.48699,4.960207 3.2743,7.853874 0.29277,1.076056 0.67994,2.116541 0.86036,2.312186 0.50878,0.551711 1.51063,4.072295 3.35248,11.78089 3.75999,15.736548 4.30469,19.490548 4.84565,33.39569 0.41359,10.631571 0.25452,27.219681 -0.27196,28.358611 -0.37432,0.80979 -2.33444,13.17622 -2.3465,14.80408 -0.002,0.26188 1.28113,-0.49846 2.85125,-1.68968 1.57012,-1.19121 3.04717,-2.16584 3.28231,-2.16584 0.23517,0 0.67688,0.28013 0.98159,0.62251 0.52094,0.58531 0.63928,0.58709 1.98072,0.0297 0.7847,-0.32607 2.72062,-1.10387 4.30207,-1.72845 l 2.87536,-1.13561 1.31742,0.77669 c 0.86733,0.51134 1.79245,0.73726 2.70788,0.66129 1.35354,-0.1124 1.39152,-0.0776 1.4303,1.30747 0.0219,0.78259 0.18349,2.70349 0.35911,4.26865 0.25687,2.28951 0.49819,2.96147 1.23453,3.43762 l 0.91525,0.59183 -0.96317,2.78752 c -0.52974,1.53312 -0.91966,3.18769 -0.86649,3.67681 0.11529,1.06072 -3.9279,8.45278 -6.94439,12.69618 -1.18169,1.66233 -2.14853,3.16745 -2.14853,3.3447 0,0.18458 -4.94137,0.32228 -11.56504,0.32228 -6.36077,0 -11.82253,0.0401 -12.13723,0.0889 -0.31471,0.0489 -14.3474,0.0479 -31.18377,-0.003 z"
       id="path837"
       inkscape:connector-curvature="0" />
  </g>
</svg>
